<svg xmlns="http://www.w3.org/2000/svg" viewBox="0 0 235.61 127.71"><defs><style>.cls-1{fill:#00e6ff;}</style></defs><g id="Capa_3" data-name="Capa 3"><path class="cls-1" d="M61.67,113s16-29.47,24-44c-.52-1-1.14-.56-1.67-.57-6.78-.16-13.57-.2-20.35-.44-1.37,0-2,.71-2.68,2.53-5.9,17-11.88,33.88-17.76,50.87-.71,2.07-1.16,2.5-2.51,1.19-4.2-4.11-4.22-4-1.83-10.81,4.94-14,15.31-43.85,15.31-43.85L40.46,68,23.19,93.1l-6.34-6L29.36,67.74H10.43c1.19-3.11,2.15-5.57,3.09-8,.48-1.25,1.26-.93,2-1,6.49-.13,13-.29,19.47-.32a3.44,3.44,0,0,0,2.89-1.82Q55,32.06,72.16,7.5C73.23,6,74,5.37,75.3,6.87c1.84,2.16,5.09,3,5.51,6C81.18,15.43,79,18.94,78,22c-2.67,7.68-5.37,15.34-8,23-.39,1.13-.77,2.12-1.63,2.55-2.62,1.31-5.22,2.71-8.44,4.4l7.88-22.69-.62-.73L47.24,58,103,56.83,76,103.45l43.36-2.11c-.42,2.88-1.45,5-2.1,7.34-.38,1.36-1.24.93-1.93,1q-15,1-29.94,1.94C78.07,112.06,61.67,113,61.67,113Z"/><path class="cls-1" d="M205.09,92.61c3.25-9.46,6.23-18.11,9.2-26.76,1.75-5.11,3.57-10.16,5.22-15.34.64-2,1.17-2.25,2.43-1.26,3.42,2.68,3.47,2.6,1.77,7.73Q213,89.35,202.22,121.68c-.16.49-.36.94-.87,2.23-.83-13.5-1.6-26.15-2.43-39.73-1.67,4.74-3.07,8.67-4.44,12.62-2,5.88-4.12,11.77-6.12,17.7-.56,1.66-1,2.28-2.27,1.19-4.2-3.58-4.23-3.48-2-10.11Q193,79.77,201.87,53.94a6.11,6.11,0,0,1,1.4-3C203.87,64.7,204.46,78.18,205.09,92.61Z"/><path class="cls-1" d="M97,91c3.49-10.59,7.08-21.47,10.67-32.34,1.63-5,3.32-9.85,4.89-14.85.48-1.51,1-2.21,2.14-2.23,13-.27,25.95-.61,38.92-.92a3.82,3.82,0,0,1,.68.15c.17,1.7-.55,3-.74,4.55-.27,2.1-1,2.83-2.4,2.9-10.13.48-20.25,1.17-30.38,1.62-1.47.07-2.22.8-2.77,2.81-.74,2.68-1.63,5.26-2.56,8.2h11.51c-.41,2.9-1.48,5.05-2.16,7.46-.34,1.22-1.08,1-1.71,1-3,0-6,.13-9,0-1.11,0-1.71.51-2.18,2.07-1.14,3.76-2.39,7.45-3.6,11.17h16.14c-.83,2.49-1.69,5-2.47,7.47-.34,1.08-.92,1-1.48,1Z"/><path class="cls-1" d="M199.36,48.73a50.65,50.65,0,0,0-13.49,4.87,35.82,35.82,0,0,0-15.51,15.82,29.6,29.6,0,0,0-3.31,13.76c0,3.46.57,6.72,2.77,8.25s4-.15,5.55-2.42c4-5.92,6.16-13.63,7.32-21.71.84-5.76,3.54-6.94,6.18-8.7,1.38-.92.86,1.25.84,2-.31,11-2.37,21-6.76,29.66a28.35,28.35,0,0,1-6.73,9.08,10.23,10.23,0,0,1-4.72,2.53c-6.37,1.07-10.71-5-11.07-15.64-.41-11.89,2.81-21.15,8.63-28.35a43.31,43.31,0,0,1,23.58-15.13C197.85,41.4,196.59,40.47,199.36,48.73Z"/><path class="cls-1" d="M166.74,113.77a113.64,113.64,0,0,1-15.14-13.52,107.5,107.5,0,0,1-9.34-10.84c2.12-1.46,4.07-2.71,6-4.15a27.5,27.5,0,0,0,5.48-5.55,21,21,0,0,0,4.44-10.24C159.09,62,155.83,56,150.4,55c-6.43-1.2-11.89,2.61-16.79,8.5-3.93,4.71-3.87,2.81-.71,9.6,0,.07.11.09.27.2A22.39,22.39,0,0,1,137.63,68c-3.13,13.9-6.19,27.44-9.25,41.05,5.88.72,5.88.72,7.88-7.24.24-1,.51-1.9.67-2.88.38-2.17.91-2.2,2.08-.94a170.9,170.9,0,0,0,25.65,22.5c.89.64,2,1.92,2.28-.76C167.15,117.81,169.47,115.73,166.74,113.77ZM144.89,66.42c.68-2.78,3.09-3.92,5.26-2.53,1.62,1,2.13,3.6,1.07,6.62A21.87,21.87,0,0,1,141,82.84C142.39,76.81,143.63,71.61,144.89,66.42Z"/></g></svg>